<svg width="1734" height="549" viewBox="0 0 1734 549" fill="none" xmlns="http://www.w3.org/2000/svg">
<g opacity="0.6">
<path d="M1702.3 464.921L1702.3 453L1734 453L1734 484.699L1722.17 484.699L1722.17 464.921L1702.3 464.921Z" fill="white"/>
<path d="M1680.9 486.326L1680.9 474.495L1712.6 474.495L1712.6 506.104L1700.68 506.104L1700.68 486.326L1680.9 486.326Z" fill="white"/>
<path d="M1659.49 507.818L1659.49 495.897L1691.1 495.897L1691.1 527.596L1679.27 527.596L1679.27 507.818L1659.49 507.818Z" fill="white"/>
<path d="M1638 529.222L1638 517.301L1669.7 517.301L1669.7 549L1657.78 549L1657.78 529.222L1638 529.222Z" fill="white"/>
</g>
<path opacity="0.6" d="M41 33.9782C31.6376 43.3406 16.3842 43.3406 7.02181 33.9782C-2.3406 24.6158 -2.3406 9.36241 7.02181 0L41 33.9782Z" fill="white"/>
</svg>
